<?xml version="1.0" encoding="UTF-8" ?>
<!DOCTYPE svg PUBLIC "-//W3C//DTD SVG 1.1//EN" "http://www.w3.org/Graphics/SVG/1.1/DTD/svg11.dtd">
<svg width="141pt" height="141pt" viewBox="0 0 141 141" version="1.1" xmlns="http://www.w3.org/2000/svg">
<g id="#1fc4f4ff">
<path fill="#1fc4f4" opacity="1.00" d=" M 24.82 16.81 C 37.53 5.94 54.25 -0.24 71.00 0.06 C 89.28 0.02 107.37 7.73 120.22 20.71 C 133.04 33.26 140.13 50.87 141.00 68.69 L 141.00 141.00 L 70.80 141.00 C 53.50 140.64 36.18 134.51 23.37 122.71 C 9.12 110.07 0.53 91.42 0.00 72.40 L 0.00 68.72 C 0.43 48.94 9.66 29.53 24.82 16.81 M 41.83 27.80 C 29.74 35.55 21.39 48.73 19.34 62.92 C 17.56 74.27 20.04 86.19 25.85 96.06 C 32.82 107.95 44.82 116.71 58.24 119.80 C 65.70 121.34 73.37 121.07 80.94 120.90 C 94.03 120.92 107.12 120.87 120.21 120.87 C 120.22 103.26 120.31 85.65 120.26 68.03 C 119.73 46.39 103.49 26.37 82.48 21.22 C 68.82 17.49 53.63 19.99 41.83 27.80 Z" />
<path fill="#1fc4f4" opacity="1.00" d=" M 63.44 41.65 C 77.44 37.80 93.35 46.51 97.78 60.29 C 101.23 69.95 99.06 81.41 92.13 89.01 C 83.21 99.61 66.33 101.89 54.83 94.27 C 44.88 88.06 39.42 75.45 41.99 63.96 C 44.13 53.21 52.80 44.22 63.44 41.65 M 63.48 49.69 C 53.87 52.71 47.39 63.00 48.64 72.97 C 49.70 84.29 60.52 93.60 71.94 92.50 C 84.46 92.17 94.69 79.43 92.29 67.12 C 90.79 54.04 75.77 45.00 63.48 49.69 Z" />
</g>
</svg>
